<svg xmlns="http://www.w3.org/2000/svg" viewBox="0 0 88 88">
  <!-- 背景圆 -->
  <circle cx="44" cy="44" r="42" fill="black" stroke="black" stroke-width="2"/>
  
  <!-- 帆船 - 重新设计的镂空风格 -->
  <!-- 船身 -->
  <path d="M 30,44 Q 44,42 58,44 Q 44,46 30,44" 
        fill="none" stroke="white" stroke-width="1.5" stroke-linecap="round"/>
  
  <!-- 桅杆 -->
  <line x1="44" y1="24" x2="44" y2="44" 
        stroke="white" stroke-width="1.5"/>
  
  <!-- 主帆的绳索和线条 -->
  <path d="M 44,24 L 35,44" fill="none" stroke="white" stroke-width="1"/>
  <path d="M 44,28 L 37,44" fill="none" stroke="white" stroke-width="0.5"/>
  <path d="M 44,32 L 39,44" fill="none" stroke="white" stroke-width="0.5"/>
  <path d="M 44,36 L 41,44" fill="none" stroke="white" stroke-width="0.5"/>
  
  <!-- 前帆的绳索和线条 -->
  <path d="M 44,32 L 52,44" fill="none" stroke="white" stroke-width="1"/>
  <path d="M 44,36 L 50,44" fill="none" stroke="white" stroke-width="0.5"/>
  <path d="M 44,40 L 48,44" fill="none" stroke="white" stroke-width="0.5"/>
  
  <!-- 动态海浪 - 更简洁的设计 -->
  <path d="M 18,48 C 24,48 28,45 34,45 40,45 44,48 50,48 56,48 60,45 70,45" 
        fill="none" stroke="white" stroke-width="1.5" stroke-linecap="round"/>
        
  <path d="M 16,54 C 22,54 26,51 32,51 38,51 42,54 48,54 54,54 58,51 72,51" 
        fill="none" stroke="white" stroke-width="1.5" stroke-linecap="round"/>
        
  <path d="M 20,60 C 26,60 30,57 36,57 42,57 46,60 52,60 58,60 62,57 68,57" 
        fill="none" stroke="white" stroke-width="1.5" stroke-linecap="round"/>
        
  <!-- 船头装饰线 -->
  <path d="M 30,44 C 32,43 34,42 35,40" 
        fill="none" stroke="white" stroke-width="0.5" stroke-linecap="round"/>
</svg>
